<svg xmlns="http://www.w3.org/2000/svg" viewBox="0 0 375 375" width="32" height="32">
  <rect width="375" height="375" rx="60" fill="#8F3162"/>
  <g transform="translate(0,0)">
    <circle cx="228" cy="223" r="3" fill="#D09048"/>
    <circle cx="173" cy="216" r="3" fill="#D09048"/>
    <path d="M 314.707031 273.953125 C 291.304688 253.476562 288.082031 251.152344 282.304688 247.25 C 273.230469 241.175781 257.78125 231.351562 246.53125 225.125 C 237.082031 219.875 229.503906 216.125 219.679688 211.777344 C 208.207031 206.75 194.929688 201.800781 181.65625 197.078125 C 167.40625 192.050781 151.355469 186.953125 136.878906 182.75 C 123.378906 178.851562 106.65625 174.578125 97.503906 172.550781 C 92.707031 171.578125 90.304688 171.050781 86.40625 170.675781 C 82.28125 170.226562 74.480469 171.277344 73.503906 170.078125 C 73.054688 169.625 73.28125 168.726562 73.730469 168.203125 C 74.40625 167.453125 76.730469 167.675781 78.753906 167 C 81.832031 165.875 86.554688 163.703125 90.304688 161.601562 C 94.28125 159.351562 98.78125 156.425781 101.855469 153.800781 C 104.253906 151.703125 106.28125 149.675781 107.707031 147.351562 C 108.980469 145.328125 109.65625 143.300781 110.332031 140.828125 C 111.082031 137.902344 111.457031 134.828125 111.753906 130.777344 C 112.128906 124.625 112.582031 113.675781 111.53125 107.453125 C 110.78125 103.175781 109.65625 100.625 107.929688 96.800781 C 105.753906 91.925781 99.082031 83.226562 98.628906 80.902344 C 98.480469 80.300781 98.554688 79.851562 98.855469 79.625 C 99.082031 79.402344 99.53125 79.101562 100.054688 79.402344 C 103.957031 81.351562 120.15625 127.25 128.253906 143.675781 C 133.582031 154.328125 137.628906 161.75 142.582031 169.402344 C 146.855469 176 151.355469 182.078125 155.855469 187.328125 C 159.753906 191.75 162.53125 194.226562 167.628906 198.953125 C 176.253906 206.902344 192.753906 221.375 203.40625 229.777344 C 211.503906 236.078125 218.105469 240.800781 225.457031 245.453125 C 232.429688 249.800781 241.503906 254.75 246.304688 256.925781 C 248.78125 257.976562 251.40625 257.976562 252.003906 258.800781 C 252.304688 259.175781 252.230469 259.777344 252.082031 260.078125 C 251.855469 260.375 251.105469 260.675781 250.65625 260.453125 C 249.90625 260.226562 248.707031 258.277344 248.628906 257.527344 C 248.554688 257 248.855469 256.476562 249.15625 256.25 C 249.378906 256.101562 249.980469 256.027344 250.207031 256.175781 C 250.503906 256.476562 250.730469 257.828125 250.429688 258.050781 C 250.207031 258.277344 248.855469 257.976562 248.628906 257.601562 C 248.480469 257.300781 248.707031 256.550781 249.003906 256.328125 C 249.304688 256.101562 249.980469 256.101562 250.355469 256.328125 C 251.105469 256.777344 252.378906 259.175781 252.15625 259.851562 C 252.082031 260.226562 251.480469 260.527344 250.878906 260.601562 C 249.679688 260.675781 247.65625 259.925781 245.253906 258.875 C 240.457031 256.851562 229.957031 250.777344 224.253906 247.328125 C 220.128906 244.777344 217.65625 243.125 213.832031 240.425781 C 208.878906 236.828125 202.429688 231.953125 197.105469 227.675781 C 192.082031 223.625 188.03125 219.953125 182.707031 215.375 C 176.179688 209.601562 166.054688 200.828125 160.957031 195.875 C 157.957031 192.953125 156.679688 191.75 154.128906 188.675781 C 150.230469 184.101562 144.980469 177.277344 140.628906 170.527344 C 135.679688 162.800781 130.878906 154.027344 126.230469 144.578125 C 120.980469 133.851562 116.03125 119.828125 111.230469 109.101562 C 107.105469 100.101562 100.957031 89.375 99.378906 84.5 C 98.707031 82.625 98.179688 81.203125 98.480469 80.375 C 98.78125 79.777344 99.457031 79.25 100.054688 79.402344 C 102.15625 79.851562 107.707031 90.800781 110.03125 95.902344 C 111.90625 99.875 113.03125 102.652344 113.78125 107.226562 C 114.832031 113.601562 114.378906 124.625 114.003906 130.925781 C 113.707031 135.203125 113.179688 138.578125 112.429688 141.578125 C 111.90625 143.828125 111.230469 145.777344 110.40625 147.351562 C 109.730469 148.550781 109.054688 149.300781 108.230469 150.351562 C 107.179688 151.703125 105.980469 153.125 104.554688 154.476562 C 102.679688 156.203125 100.730469 157.777344 97.878906 159.578125 C 93.53125 162.425781 84.082031 167 80.105469 168.726562 C 78.15625 169.550781 76.957031 170.152344 75.679688 170.300781 C 74.855469 170.453125 73.878906 170.453125 73.503906 170.078125 C 73.207031 169.777344 73.054688 169.175781 73.207031 168.800781 C 73.28125 168.5 73.503906 168.277344 73.957031 168.125 C 75.605469 167.527344 82.207031 167.976562 86.855469 168.425781 C 92.332031 169.027344 99.003906 170.527344 104.855469 171.875 C 110.554688 173.152344 114.378906 174.125 121.65625 176.226562 C 135.679688 180.125 164.628906 188.75 182.480469 194.976562 C 196.730469 199.925781 209.105469 204.652344 220.582031 209.75 C 230.480469 214.101562 237.90625 217.703125 247.730469 223.175781 C 260.179688 230.152344 278.707031 241.703125 288.90625 248.902344 C 295.28125 253.476562 299.253906 256.925781 303.980469 260.976562 C 308.332031 264.726562 315.082031 269.976562 316.128906 272.226562 C 316.429688 272.902344 316.429688 273.578125 316.128906 273.875 C 315.90625 274.175781 314.707031 273.953125 314.707031 273.953125" fill="none" stroke="#D09048" stroke-width="4" stroke-linecap="round" stroke-linejoin="round"/>
  </g>
</svg>
