<svg xmlns="http://www.w3.org/2000/svg" xmlns:xlink="http://www.w3.org/1999/xlink" width="500" zoomAndPan="magnify" viewBox="0 0 375 374.999991" height="500" preserveAspectRatio="xMidYMid meet" version="1.0"><defs><clipPath id="7ecdc83fca"><path d="M 227.289062 222.953125 L 227.964844 222.953125 L 227.964844 223.574219 L 227.289062 223.574219 Z M 227.289062 222.953125 " clip-rule="nonzero"/></clipPath><clipPath id="51ae264518"><path d="M 227.925781 223.410156 C 226.652344 223.832031 227.78125 222.984375 227.78125 222.984375 " clip-rule="nonzero"/></clipPath><clipPath id="937cf070d3"><path d="M 0.289062 0.960938 L 0.964844 0.960938 L 0.964844 1.574219 L 0.289062 1.574219 Z M 0.289062 0.960938 " clip-rule="nonzero"/></clipPath><clipPath id="dd4eab5166"><path d="M 0.925781 1.410156 C -0.347656 1.832031 0.78125 0.984375 0.78125 0.984375 " clip-rule="nonzero"/></clipPath><clipPath id="d30b5d00d8"><rect x="0" width="1" y="0" height="2"/></clipPath><clipPath id="cc1afb1891"><path d="M 172.269531 216.019531 L 172.941406 216.019531 L 172.941406 216.550781 L 172.269531 216.550781 Z M 172.269531 216.019531 " clip-rule="nonzero"/></clipPath><clipPath id="4530323c08"><path d="M 172.902344 216.335938 C 171.628906 216.902344 172.761719 216.054688 172.761719 216.054688 " clip-rule="nonzero"/></clipPath><clipPath id="20a58dcb70"><path d="M 0.269531 0.0195312 L 0.941406 0.0195312 L 0.941406 0.550781 L 0.269531 0.550781 Z M 0.269531 0.0195312 " clip-rule="nonzero"/></clipPath><clipPath id="47c6afe440"><path d="M 0.902344 0.335938 C -0.371094 0.902344 0.761719 0.0546875 0.761719 0.0546875 " clip-rule="nonzero"/></clipPath><clipPath id="084c37850d"><rect x="0" width="1" y="0" height="1"/></clipPath><clipPath id="66ca075229"><path d="M 73 79 L 316.496094 79 L 316.496094 274.78125 L 73 274.78125 Z M 73 79 " clip-rule="nonzero"/></clipPath><clipPath id="304d6ff090"><path d="M 314.707031 273.953125 C 291.304688 253.476562 288.082031 251.152344 282.304688 247.25 C 273.230469 241.175781 257.78125 231.351562 246.53125 225.125 C 237.082031 219.875 229.503906 216.125 219.679688 211.777344 C 208.207031 206.75 194.929688 201.800781 181.65625 197.078125 C 167.40625 192.050781 151.355469 186.953125 136.878906 182.75 C 123.378906 178.851562 106.65625 174.578125 97.503906 172.550781 C 92.707031 171.578125 90.304688 171.050781 86.40625 170.675781 C 82.28125 170.226562 74.480469 171.277344 73.503906 170.078125 C 73.054688 169.625 73.28125 168.726562 73.730469 168.203125 C 74.40625 167.453125 76.730469 167.675781 78.753906 167 C 81.832031 165.875 86.554688 163.703125 90.304688 161.601562 C 94.28125 159.351562 98.78125 156.425781 101.855469 153.800781 C 104.253906 151.703125 106.28125 149.675781 107.707031 147.351562 C 108.980469 145.328125 109.65625 143.300781 110.332031 140.828125 C 111.082031 137.902344 111.457031 134.828125 111.753906 130.777344 C 112.128906 124.625 112.582031 113.675781 111.53125 107.453125 C 110.78125 103.175781 109.65625 100.625 107.929688 96.800781 C 105.753906 91.925781 99.082031 83.226562 98.628906 80.902344 C 98.480469 80.300781 98.554688 79.851562 98.855469 79.625 C 99.082031 79.402344 99.53125 79.101562 100.054688 79.402344 C 103.957031 81.351562 120.15625 127.25 128.253906 143.675781 C 133.582031 154.328125 137.628906 161.75 142.582031 169.402344 C 146.855469 176 151.355469 182.078125 155.855469 187.328125 C 159.753906 191.75 162.53125 194.226562 167.628906 198.953125 C 176.253906 206.902344 192.753906 221.375 203.40625 229.777344 C 211.503906 236.078125 218.105469 240.800781 225.457031 245.453125 C 232.429688 249.800781 241.503906 254.75 246.304688 256.925781 C 248.78125 257.976562 251.40625 257.976562 252.003906 258.800781 C 252.304688 259.175781 252.230469 259.777344 252.082031 260.078125 C 251.855469 260.375 251.105469 260.675781 250.65625 260.453125 C 249.90625 260.226562 248.707031 258.277344 248.628906 257.527344 C 248.554688 257 248.855469 256.476562 249.15625 256.25 C 249.378906 256.101562 249.980469 256.027344 250.207031 256.175781 C 250.503906 256.476562 250.730469 257.828125 250.429688 258.050781 C 250.207031 258.277344 248.855469 257.976562 248.628906 257.601562 C 248.480469 257.300781 248.707031 256.550781 249.003906 256.328125 C 249.304688 256.101562 249.980469 256.101562 250.355469 256.328125 C 251.105469 256.777344 252.378906 259.175781 252.15625 259.851562 C 252.082031 260.226562 251.480469 260.527344 250.878906 260.601562 C 249.679688 260.675781 247.65625 259.925781 245.253906 258.875 C 240.457031 256.851562 229.957031 250.777344 224.253906 247.328125 C 220.128906 244.777344 217.65625 243.125 213.832031 240.425781 C 208.878906 236.828125 202.429688 231.953125 197.105469 227.675781 C 192.082031 223.625 188.03125 219.953125 182.707031 215.375 C 176.179688 209.601562 166.054688 200.828125 160.957031 195.875 C 157.957031 192.953125 156.679688 191.75 154.128906 188.675781 C 150.230469 184.101562 144.980469 177.277344 140.628906 170.527344 C 135.679688 162.800781 130.878906 154.027344 126.230469 144.578125 C 120.980469 133.851562 116.03125 119.828125 111.230469 109.101562 C 107.105469 100.101562 100.957031 89.375 99.378906 84.5 C 98.707031 82.625 98.179688 81.203125 98.480469 80.375 C 98.78125 79.777344 99.457031 79.25 100.054688 79.402344 C 102.15625 79.851562 107.707031 90.800781 110.03125 95.902344 C 111.90625 99.875 113.03125 102.652344 113.78125 107.226562 C 114.832031 113.601562 114.378906 124.625 114.003906 130.925781 C 113.707031 135.203125 113.179688 138.578125 112.429688 141.578125 C 111.90625 143.828125 111.230469 145.777344 110.40625 147.351562 C 109.730469 148.550781 109.054688 149.300781 108.230469 150.351562 C 107.179688 151.703125 105.980469 153.125 104.554688 154.476562 C 102.679688 156.203125 100.730469 157.777344 97.878906 159.578125 C 93.53125 162.425781 84.082031 167 80.105469 168.726562 C 78.15625 169.550781 76.957031 170.152344 75.679688 170.300781 C 74.855469 170.453125 73.878906 170.453125 73.503906 170.078125 C 73.207031 169.777344 73.054688 169.175781 73.207031 168.800781 C 73.28125 168.5 73.503906 168.277344 73.957031 168.125 C 75.605469 167.527344 82.207031 167.976562 86.855469 168.425781 C 92.332031 169.027344 99.003906 170.527344 104.855469 171.875 C 110.554688 173.152344 114.378906 174.125 121.65625 176.226562 C 135.679688 180.125 164.628906 188.75 182.480469 194.976562 C 196.730469 199.925781 209.105469 204.652344 220.582031 209.75 C 230.480469 214.101562 237.90625 217.703125 247.730469 223.175781 C 260.179688 230.152344 278.707031 241.703125 288.90625 248.902344 C 295.28125 253.476562 299.253906 256.925781 303.980469 260.976562 C 308.332031 264.726562 315.082031 269.976562 316.128906 272.226562 C 316.429688 272.902344 316.429688 273.578125 316.128906 273.875 C 315.90625 274.175781 314.707031 273.953125 314.707031 273.953125 " clip-rule="nonzero"/></clipPath><clipPath id="3aa4539fb6"><path d="M 0 0 L 243.496094 0 L 243.496094 195.320312 L 0 195.320312 Z M 0 0 " clip-rule="nonzero"/></clipPath><clipPath id="78bd8781bd"><path d="M 241.707031 194.953125 C 218.304688 174.476562 215.082031 172.152344 209.304688 168.25 C 200.230469 162.175781 184.78125 152.351562 173.53125 146.125 C 164.082031 140.875 156.503906 137.125 146.679688 132.777344 C 135.207031 127.75 121.929688 122.800781 108.65625 118.078125 C 94.40625 113.050781 78.355469 107.953125 63.878906 103.75 C 50.378906 99.851562 33.65625 95.578125 24.503906 93.550781 C 19.707031 92.578125 17.304688 92.050781 13.40625 91.675781 C 9.28125 91.226562 1.480469 92.277344 0.503906 91.078125 C 0.0546875 90.625 0.28125 89.726562 0.730469 89.203125 C 1.40625 88.453125 3.730469 88.675781 5.753906 88 C 8.832031 86.875 13.554688 84.703125 17.304688 82.601562 C 21.28125 80.351562 25.78125 77.425781 28.855469 74.800781 C 31.253906 72.703125 33.28125 70.675781 34.707031 68.351562 C 35.980469 66.328125 36.65625 64.300781 37.332031 61.828125 C 38.082031 58.902344 38.457031 55.828125 38.753906 51.777344 C 39.128906 45.625 39.582031 34.675781 38.53125 28.453125 C 37.78125 24.175781 36.65625 21.625 34.929688 17.800781 C 32.753906 12.925781 26.082031 4.226562 25.628906 1.902344 C 25.480469 1.300781 25.554688 0.851562 25.855469 0.625 C 26.082031 0.402344 26.53125 0.101562 27.054688 0.402344 C 30.957031 2.351562 47.15625 48.25 55.253906 64.675781 C 60.582031 75.328125 64.628906 82.75 69.582031 90.402344 C 73.855469 97 78.355469 103.078125 82.855469 108.328125 C 86.753906 112.75 89.53125 115.226562 94.628906 119.953125 C 103.253906 127.902344 119.753906 142.375 130.40625 150.777344 C 138.503906 157.078125 145.105469 161.800781 152.457031 166.453125 C 159.429688 170.800781 168.503906 175.75 173.304688 177.925781 C 175.78125 178.976562 178.40625 178.976562 179.003906 179.800781 C 179.304688 180.175781 179.230469 180.777344 179.082031 181.078125 C 178.855469 181.375 178.105469 181.675781 177.65625 181.453125 C 176.90625 181.226562 175.707031 179.277344 175.628906 178.527344 C 175.554688 178 175.855469 177.476562 176.15625 177.25 C 176.378906 177.101562 176.980469 177.027344 177.207031 177.175781 C 177.503906 177.476562 177.730469 178.828125 177.429688 179.050781 C 177.207031 179.277344 175.855469 178.976562 175.628906 178.601562 C 175.480469 178.300781 175.707031 177.550781 176.003906 177.328125 C 176.304688 177.101562 176.980469 177.101562 177.355469 177.328125 C 178.105469 177.777344 179.378906 180.175781 179.15625 180.851562 C 179.082031 181.226562 178.480469 181.527344 177.878906 181.601562 C 176.679688 181.675781 174.65625 180.925781 172.253906 179.875 C 167.457031 177.851562 156.957031 171.777344 151.253906 168.328125 C 147.128906 165.777344 144.65625 164.125 140.832031 161.425781 C 135.878906 157.828125 129.429688 152.953125 124.105469 148.675781 C 119.082031 144.625 115.03125 140.953125 109.707031 136.375 C 103.179688 130.601562 93.054688 121.828125 87.957031 116.875 C 84.957031 113.953125 83.679688 112.75 81.128906 109.675781 C 77.230469 105.101562 71.980469 98.277344 67.628906 91.527344 C 62.679688 83.800781 57.878906 75.027344 53.230469 65.578125 C 47.980469 54.851562 43.03125 40.828125 38.230469 30.101562 C 34.105469 21.101562 27.957031 10.375 26.378906 5.5 C 25.707031 3.625 25.179688 2.203125 25.480469 1.375 C 25.78125 0.777344 26.457031 0.25 27.054688 0.402344 C 29.15625 0.851562 34.707031 11.800781 37.03125 16.902344 C 38.90625 20.875 40.03125 23.652344 40.78125 28.226562 C 41.832031 34.601562 41.378906 45.625 41.003906 51.925781 C 40.707031 56.203125 40.179688 59.578125 39.429688 62.578125 C 38.90625 64.828125 38.230469 66.777344 37.40625 68.351562 C 36.730469 69.550781 36.054688 70.300781 35.230469 71.351562 C 34.179688 72.703125 32.980469 74.125 31.554688 75.476562 C 29.679688 77.203125 27.730469 78.777344 24.878906 80.578125 C 20.53125 83.425781 11.082031 88 7.105469 89.726562 C 5.15625 90.550781 3.957031 91.152344 2.679688 91.300781 C 1.855469 91.453125 0.878906 91.453125 0.503906 91.078125 C 0.207031 90.777344 0.0546875 90.175781 0.207031 89.800781 C 0.28125 89.5 0.503906 89.277344 0.957031 89.125 C 2.605469 88.527344 9.207031 88.976562 13.855469 89.425781 C 19.332031 90.027344 26.003906 91.527344 31.855469 92.875 C 37.554688 94.152344 41.378906 95.125 48.65625 97.226562 C 62.679688 101.125 91.628906 109.75 109.480469 115.976562 C 123.730469 120.925781 136.105469 125.652344 147.582031 130.75 C 157.480469 135.101562 164.90625 138.703125 174.730469 144.175781 C 187.179688 151.152344 205.707031 162.703125 215.90625 169.902344 C 222.28125 174.476562 226.253906 177.925781 230.980469 181.976562 C 235.332031 185.726562 242.082031 190.976562 243.128906 193.226562 C 243.429688 193.902344 243.429688 194.578125 243.128906 194.875 C 242.90625 195.175781 241.707031 194.953125 241.707031 194.953125 " clip-rule="nonzero"/></clipPath><clipPath id="5c4b48437a"><rect x="0" width="244" y="0" height="196"/></clipPath></defs><g clip-path="url(#7ecdc83fca)"><g clip-path="url(#51ae264518)"><g transform="matrix(1, 0, 0, 1, 227, 222)"><g clip-path="url(#d30b5d00d8)"><g clip-path="url(#937cf070d3)"><g clip-path="url(#dd4eab5166)"><rect x="-309.5" width="540" fill="#000000" height="539.999987" y="-304.499998" fill-opacity="1"/></g></g></g></g></g></g><g clip-path="url(#cc1afb1891)"><g clip-path="url(#4530323c08)"><g transform="matrix(1, 0, 0, 1, 172, 216)"><g clip-path="url(#084c37850d)"><g clip-path="url(#20a58dcb70)"><g clip-path="url(#47c6afe440)"><rect x="-254.5" width="540" fill="#000000" height="539.999987" y="-298.499998" fill-opacity="1"/></g></g></g></g></g></g><g clip-path="url(#66ca075229)"><g clip-path="url(#304d6ff090)"><g transform="matrix(1, 0, 0, 1, 73, 79)"><g clip-path="url(#5c4b48437a)"><g clip-path="url(#3aa4539fb6)"><g clip-path="url(#78bd8781bd)"><rect x="-155.5" width="540" fill="#000000" height="539.999987" y="-161.499998" fill-opacity="1"/></g></g></g></g></g></g></svg>